<svg xmlns="http://www.w3.org/2000/svg" xmlns:xlink="http://www.w3.org/1999/xlink" width="185.069" height="174.586" viewBox="0 0 185.069 174.586">
  <defs>
    <clipPath id="clip-path">
      <rect id="Rectangle_683" data-name="Rectangle 683" width="185.069" height="174.586" transform="translate(0 0)" fill="#fff"/>
    </clipPath>
  </defs>
  <g id="Group_36566" data-name="Group 36566" transform="translate(-1472 -160.562)">
    <g id="Group_1339" data-name="Group 1339" transform="translate(1472 160.561)">
      <g id="Group_1338" data-name="Group 1338" transform="translate(0 0)" clip-path="url(#clip-path)">
        <path id="Path_1212" data-name="Path 1212" d="M1871.873,458.025a39.524,39.524,0,0,0-2-11.827c-1.287-3.793-2.779-7.517-4.289-11.56.568.539.982.879,1.335,1.274a44.953,44.953,0,0,1,9.436,17.106,53.669,53.669,0,0,1,2.16,17.631,4.263,4.263,0,0,1-.346,1.094c-.36-.123-.815-.146-1.067-.383-3.493-3.3-7.03-6.555-10.411-9.966-3.788-3.82-6.525-8.438-9.028-13.135a48.321,48.321,0,0,1-3.318-8.7,38.369,38.369,0,0,1-1.72-12.951,34.95,34.95,0,0,1,2.123-11.107c.222-.574.406-1.162.624-1.738a1.048,1.048,0,0,1,1.629-.623c2.009.941,4.044,1.83,6.014,2.846a58.36,58.36,0,0,1,10.383,6.877,47.15,47.15,0,0,1,11,12.983,42.569,42.569,0,0,1,5.35,16.041,56.734,56.734,0,0,1,.288,12.269,62.951,62.951,0,0,1-2.164,11.6,6.592,6.592,0,0,1-.44.95l-.34-.043a16.618,16.618,0,0,1,.008-1.723,53.876,53.876,0,0,0-1.055-18.828,47.849,47.849,0,0,0-6.417-14.584,49.116,49.116,0,0,0-12.178-13.026c-1.91-1.4-3.971-2.584-5.964-3.866-.62-.4-.945-.222-1.065.5a34.533,34.533,0,0,0,2.019,19.586,40.136,40.136,0,0,0,8.5,12.764c.214.216.445.414.668.62l.258-.083" transform="translate(-1788.2 -398.609)" fill="#fff"/>
        <path id="Path_1213" data-name="Path 1213" d="M1071.429,2118.8c1.648.318,3.077.608,4.51.867a44.194,44.194,0,0,0,21.266-1.615,49.111,49.111,0,0,0,11.227-5.384,56.082,56.082,0,0,0,11.545-10.045c.208-.237.457-.438.687-.657l.262.149a4.42,4.42,0,0,1-.294.934,50.481,50.481,0,0,1-8.129,10.735c-6.07,6-13.182,10.136-21.683,11.577a43.327,43.327,0,0,1-17.358-.386,79.727,79.727,0,0,1-15.452-5.324c-.431-.2-.821-.493-1.4-.846a4.726,4.726,0,0,1,.958-.612c6.214-1.786,11.285-5.563,16.387-9.313,3.126-2.3,6.277-4.586,9.57-6.629a43.441,43.441,0,0,1,22.336-5.866c.707.022,1.415.095,2.117.18.89.109,1.141.411.789,1.235-.762,1.78-1.559,3.554-2.468,5.263a24.094,24.094,0,0,1-11.64,10.836,60.843,60.843,0,0,1-8.013,2.475,18.42,18.42,0,0,1-1.979.36l-.141-.383a9.223,9.223,0,0,1,1.175-.708,27.808,27.808,0,0,0,11.843-9.315,43.111,43.111,0,0,0,2.394-3.947,2.382,2.382,0,0,0,.14-.787,2.323,2.323,0,0,0-.856-.09c-2.62.8-5.26,1.548-7.837,2.474a41.66,41.66,0,0,0-12.887,7.672c-2.225,1.893-4.243,4.031-6.34,6.072a7.821,7.821,0,0,0-.728,1.08" transform="translate(-1019.884 -2023.502)" fill="#fff"/>
        <path id="Path_1214" data-name="Path 1214" d="M2238.831,12.1c-.131.326-.27.629-.376.943-.426,1.256-.838,2.517-1.264,3.774-.406,1.2-.569,1.238-1.578.509-1.473-1.065-2.984-2.079-4.425-3.186a1.52,1.52,0,0,1-.578-1.183,33.882,33.882,0,0,1,4.483-11.478c.151-.233.317-.456.487-.675.718-.931.98-1.044,1.9-.363a63.411,63.411,0,0,1,6.021,4.738,87.463,87.463,0,0,1,6.723,7.227,37.551,37.551,0,0,1,5.513,9.89,57.707,57.707,0,0,1,3.674,12.284c.346,1.971.626,3.959.8,5.951.211,2.392.371,4.8.393,7.2a80.054,80.054,0,0,1-1.346,15.076q-.363,2-.769,3.992a1.236,1.236,0,0,1-.542.774,1.881,1.881,0,0,1-.15-.525c.065-3.143.241-6.288.189-9.428-.042-2.582-.35-5.161-.542-7.74a66.074,66.074,0,0,0-2.889-14.949,50.276,50.276,0,0,0-7.5-15.181,31.551,31.551,0,0,0-7.123-7.066c-.252-.177-.5-.355-.762-.524a1.332,1.332,0,0,0-.333-.054" transform="translate(-2153.069 -0.004)" fill="#fff"/>
        <path id="Path_1215" data-name="Path 1215" d="M2992.076,1161.5a5.655,5.655,0,0,1,.37.854,31.377,31.377,0,0,1,.743,12.368,50.294,50.294,0,0,1-1.87,9.215,53.428,53.428,0,0,1-5.955,12.27,75.091,75.091,0,0,1-11.146,13.281c-1.3,1.226-2.646,2.4-3.985,3.583a5.539,5.539,0,0,1-.823.508l-.25-.163a7.711,7.711,0,0,1,.362-1c1.726-3.305,3.542-6.565,5.18-9.913a74.567,74.567,0,0,0,5.832-16.821,47.366,47.366,0,0,0,1.12-10.821,2.4,2.4,0,0,1,.3-1.255c2.481,8.472,1.079,16.663-1.746,24.788a53.8,53.8,0,0,0,5.307-8.345,53.869,53.869,0,0,0,6.179-18.763,31.986,31.986,0,0,0-.012-9.731l.393-.052" transform="translate(-2865.958 -1121.129)" fill="#fff"/>
        <path id="Path_1216" data-name="Path 1216" d="M1971.1,1803.932a5.779,5.779,0,0,1,.31.973,37.473,37.473,0,0,1-3.13,18.853,47.664,47.664,0,0,1-7.155,11.934,48.8,48.8,0,0,1-9.588,8.916,38.586,38.586,0,0,1-16.7,6.637,29.879,29.879,0,0,1-4.253.066c-.166,0-.332-.1-.569-.391.323-.14.637-.3.97-.415,2.86-.96,5.81-1.71,8.567-2.906a46.56,46.56,0,0,0,12.581-8.348,60.756,60.756,0,0,0,14.134-19.149,42.984,42.984,0,0,0,4.048-13.6c.086-.732.277-1.453.431-2.176.016-.075.113-.133.349-.4" transform="translate(-1862.938 -1741.231)" fill="#fff"/>
        <path id="Path_1217" data-name="Path 1217" d="M1451.953,3705.635c3.055,0,6.111-.051,9.165.011a14.381,14.381,0,0,1,14.133,12.451c.791,6.382-1.835,11.176-7.188,14.495a13.408,13.408,0,0,1-7.066,1.923c-5.863.027-11.727.005-17.59.007-1.27,0-1.3.032-1.3,1.3,0,4.2.016,8.392-.01,12.589a2.629,2.629,0,0,1-4.091,2.348,2.528,2.528,0,0,1-1.26-2.242c-.019-4.752-.066-9.505.014-14.255a5.352,5.352,0,0,1,5.334-5.105c5.956-.018,11.912.03,17.867-.035a13.407,13.407,0,0,0,4.077-.616,8.935,8.935,0,0,0,4.567-13.286,8.8,8.8,0,0,0-7.784-4.187c-5.894-.042-11.788,0-17.682-.028-.839,0-1.047.353-1.043,1.116.022,4.258.039,8.518-.021,12.775a3.507,3.507,0,0,1-.686,1.917,2.319,2.319,0,0,1-2.625.914,2.965,2.965,0,0,1-2.023-2.515c-.015-.214-.011-.431-.011-.647q0-6.527,0-13.053a5.555,5.555,0,0,1,5.874-5.867c1.574-.008,3.147,0,4.721,0h4.629Z" transform="translate(-1386.775 -3576.816)" fill="#fff"/>
        <path id="Path_1218" data-name="Path 1218" d="M2692.814,3706.084q4.582,0,9.164,0a14.719,14.719,0,0,1,13.842,10.571,14.382,14.382,0,0,1-9.8,17.6,19.189,19.189,0,0,1-4.633.684c-5.676.079-11.355.029-17.032.032-1.267,0-1.3.033-1.3,1.3q-.006,6.294,0,12.588a2.62,2.62,0,0,1-1.478,2.482,2.508,2.508,0,0,1-2.716-.169,2.549,2.549,0,0,1-1.167-2.2c-.017-4.72-.089-9.443.023-14.161a5.318,5.318,0,0,1,5.606-5.21c5.894-.006,11.787.006,17.68-.008a10.364,10.364,0,0,0,5.663-1.418,8.868,8.868,0,0,0,2.876-12.5,9.007,9.007,0,0,0-7.889-4.2c-5.8-.028-11.6-.012-17.4-.007-1.079,0-1.19.121-1.191,1.256,0,4.1,0,8.207,0,12.311a2.845,2.845,0,0,1-1.555,2.908,2.543,2.543,0,0,1-3.479-1.242,4.447,4.447,0,0,1-.329-1.7q-.04-6.571-.01-13.144a5.517,5.517,0,0,1,5.7-5.756c1.573-.03,3.147-.007,4.721-.007h4.721Z" transform="translate(-2584.578 -3577.265)" fill="#fff"/>
        <path id="Path_1219" data-name="Path 1219" d="M23.16,3701.3c-1.259,2.711-2.4,5.168-3.539,7.62q-3.087,6.62-6.18,13.237c-1.705,3.66-3.393,7.329-5.106,10.985-1.085,2.315-2.173,4.63-3.317,6.917a2.566,2.566,0,0,1-3.475,1.173,2.632,2.632,0,0,1-1.286-3.521c1.687-3.6,3.426-7.175,5.118-10.771,1.378-2.929,2.714-5.877,4.078-8.812q3.915-8.428,7.845-16.849a24.74,24.74,0,0,1,1.915-3.784,4.852,4.852,0,0,1,8.46.858c2.288,4.75,4.649,9.466,6.97,14.2q1.588,3.237,3.145,6.491a2.555,2.555,0,0,1-.462,3.082,2.326,2.326,0,0,1-2.707.645,3.042,3.042,0,0,1-1.444-1.194c-1.444-2.756-2.791-5.562-4.164-8.355-1.914-3.892-3.821-7.786-5.851-11.923" transform="translate(0 -3566.947)" fill="#fff"/>
        <path id="Path_1220" data-name="Path 1220" d="M4360.682,3730.033q0-10.04,0-20.08a2.492,2.492,0,0,1,1.757-2.539,2.424,2.424,0,0,1,2.935.941,3.942,3.942,0,0,1,.5,2c.034,7.8.021,15.607.021,23.411v12.122c0,1.687,0,1.687,1.645,1.687q11.846,0,23.69,0a2.649,2.649,0,0,1,1.018,5.18,4.92,4.92,0,0,1-1.457.184q-13.465.017-26.929-.01a4.348,4.348,0,0,1-2.02-.478,2.45,2.45,0,0,1-1.186-2.342c.031-6.693.016-13.386.018-20.079" transform="translate(-4209.096 -3578.398)" fill="#fff"/>
        <path id="Path_1221" data-name="Path 1221" d="M3978.269,3729.913c0-6.415-.029-12.829.033-19.242a4.439,4.439,0,0,1,.766-2.559,2.576,2.576,0,0,1,4.524.96,5.494,5.494,0,0,1,.209,1.64q.017,19.242-.008,38.485a5.45,5.45,0,0,1-.39,2.059,2.446,2.446,0,0,1-2.668,1.548,2.618,2.618,0,0,1-2.3-2.091,7.616,7.616,0,0,1-.164-1.649q-.016-9.573-.006-19.15" transform="translate(-3839.986 -3578.265)" fill="#fff"/>
        <path id="Path_1222" data-name="Path 1222" d="M384.941,4536.959c3.052,0,6.1-.013,9.156,0a6.491,6.491,0,0,1,5.93,3.462c1.719,3.026,3.333,6.113,4.967,9.187a2.819,2.819,0,0,1-.957,3.881c-1.258.752-2.791.288-3.669-1.266-1.529-2.708-3.017-5.443-4.418-8.219a2.684,2.684,0,0,0-2.732-1.708c-5.641.061-11.284.049-16.925,0a5.767,5.767,0,0,1-2.474-.577,2.433,2.433,0,0,1-1.105-2.8,2.574,2.574,0,0,1,2.516-1.954c3.237-.022,6.474-.008,9.711-.008Z" transform="translate(-359.666 -4379.258)" fill="#fff"/>
        <path id="Path_1223" data-name="Path 1223" d="M3208.366,4585.5c.571.349,1.565.868,2.461,1.521,3.906,2.845,7.774,5.741,11.675,8.593,1.861,1.359,2.118,3.112.589,4.459a2.528,2.528,0,0,1-3.242.057c-1.862-1.31-3.679-2.684-5.516-4.028-2.559-1.874-5.13-3.728-7.667-5.63a4.1,4.1,0,0,1-1.277-1.415c-.8-1.707.514-3.548,2.976-3.557" transform="translate(-3093.751 -4426.12)" fill="#fff"/>
      </g>
    </g>
  </g>
</svg>
