<svg id="Group_1339" data-name="Group 1339" xmlns="http://www.w3.org/2000/svg" xmlns:xlink="http://www.w3.org/1999/xlink" width="104.575" height="98.652" viewBox="0 0 104.575 98.652">
  <defs>
    <clipPath id="clip-path">
      <rect id="Rectangle_683" data-name="Rectangle 683" width="104.575" height="98.651" transform="translate(0 0)" fill="none"/>
    </clipPath>
  </defs>
  <g id="Group_1338" data-name="Group 1338" transform="translate(0 0)" clip-path="url(#clip-path)">
    <path id="Path_1212" data-name="Path 1212" d="M1863.487,438.426a22.337,22.337,0,0,0-1.128-6.683c-.727-2.143-1.57-4.248-2.423-6.532.321.3.555.5.754.72a25.4,25.4,0,0,1,5.332,9.666,30.33,30.33,0,0,1,1.22,9.963,2.41,2.41,0,0,1-.2.618c-.2-.069-.46-.082-.6-.217-1.974-1.864-3.972-3.7-5.883-5.631a30.911,30.911,0,0,1-5.1-7.422,27.311,27.311,0,0,1-1.875-4.917,21.678,21.678,0,0,1-.972-7.318,19.747,19.747,0,0,1,1.2-6.276c.125-.324.23-.657.353-.982a.592.592,0,0,1,.921-.352c1.135.532,2.285,1.034,3.4,1.608a32.975,32.975,0,0,1,5.867,3.886,26.642,26.642,0,0,1,6.215,7.336,24.055,24.055,0,0,1,3.023,9.064,32.063,32.063,0,0,1,.163,6.932,35.569,35.569,0,0,1-1.223,6.557,3.722,3.722,0,0,1-.249.537l-.192-.024a9.382,9.382,0,0,1,0-.974,30.441,30.441,0,0,0-.6-10.639,27.038,27.038,0,0,0-3.626-8.241,27.754,27.754,0,0,0-6.881-7.36c-1.079-.788-2.244-1.46-3.37-2.184-.351-.226-.534-.125-.6.283a19.514,19.514,0,0,0,1.141,11.068,22.68,22.68,0,0,0,4.805,7.212c.121.122.251.234.377.35l.146-.047" transform="translate(-1816.207 -404.852)" fill="#28a9a8"/>
    <path id="Path_1213" data-name="Path 1213" d="M1064.984,2109.044c.931.18,1.738.344,2.548.49a24.974,24.974,0,0,0,12.017-.913,27.752,27.752,0,0,0,6.344-3.042,31.692,31.692,0,0,0,6.523-5.676c.118-.134.258-.248.388-.371l.148.084a2.5,2.5,0,0,1-.166.528,28.52,28.52,0,0,1-4.594,6.066,22.555,22.555,0,0,1-12.252,6.542,24.484,24.484,0,0,1-9.808-.218,45.049,45.049,0,0,1-8.731-3.008c-.244-.114-.464-.278-.791-.478a2.665,2.665,0,0,1,.542-.346c3.512-1.009,6.376-3.144,9.26-5.263,1.767-1.3,3.547-2.591,5.408-3.746a24.543,24.543,0,0,1,12.621-3.315c.4.012.8.053,1.2.1.5.062.645.232.446.7-.431,1.006-.881,2.008-1.394,2.974a13.615,13.615,0,0,1-6.578,6.123,34.367,34.367,0,0,1-4.528,1.4,10.457,10.457,0,0,1-1.119.2l-.08-.216a5.206,5.206,0,0,1,.664-.4,15.712,15.712,0,0,0,6.692-5.264,24.327,24.327,0,0,0,1.353-2.23,1.345,1.345,0,0,0,.079-.444,1.311,1.311,0,0,0-.484-.051c-1.481.452-2.972.875-4.428,1.4a23.539,23.539,0,0,0-7.282,4.335c-1.258,1.07-2.4,2.278-3.583,3.431a4.414,4.414,0,0,0-.411.61" transform="translate(-1035.858 -2055.194)" fill="#28a9a8"/>
    <path id="Path_1214" data-name="Path 1214" d="M2235.251,6.839c-.074.184-.152.355-.212.533-.241.71-.474,1.422-.714,2.132-.229.677-.322.7-.891.287-.833-.6-1.686-1.175-2.5-1.8a.858.858,0,0,1-.327-.668A19.142,19.142,0,0,1,2233.14.837c.085-.131.179-.258.275-.382.406-.526.554-.59,1.072-.2a35.847,35.847,0,0,1,3.4,2.677,49.464,49.464,0,0,1,3.8,4.084A21.219,21.219,0,0,1,2244.8,12.6a32.609,32.609,0,0,1,2.076,6.941c.2,1.114.354,2.237.454,3.363.119,1.351.21,2.71.222,4.066a45.233,45.233,0,0,1-.76,8.519q-.205,1.13-.435,2.256a.7.7,0,0,1-.307.437,1.062,1.062,0,0,1-.085-.3c.037-1.776.136-3.553.107-5.328-.024-1.459-.2-2.916-.307-4.374a37.318,37.318,0,0,0-1.632-8.447,28.405,28.405,0,0,0-4.24-8.578,17.828,17.828,0,0,0-4.025-3.993c-.143-.1-.285-.2-.431-.3a.752.752,0,0,0-.188-.03" transform="translate(-2186.79 -0.004)" fill="#c87dac"/>
    <path id="Path_1215" data-name="Path 1215" d="M2982.109,1161.5a3.2,3.2,0,0,1,.209.482,17.729,17.729,0,0,1,.42,6.989,28.42,28.42,0,0,1-1.057,5.207,30.192,30.192,0,0,1-3.365,6.933,42.432,42.432,0,0,1-6.3,7.5c-.734.693-1.5,1.357-2.252,2.025a3.128,3.128,0,0,1-.465.287l-.142-.092a4.349,4.349,0,0,1,.2-.566c.975-1.868,2-3.71,2.927-5.6a42.139,42.139,0,0,0,3.3-9.5,26.757,26.757,0,0,0,.633-6.115,1.361,1.361,0,0,1,.169-.709c1.4,4.787.61,9.415-.986,14.007a30.39,30.39,0,0,0,3-4.715,30.429,30.429,0,0,0,3.492-10.6,18.071,18.071,0,0,0-.007-5.5l.222-.029" transform="translate(-2910.845 -1138.688)" fill="#28a9a8"/>
    <path id="Path_1216" data-name="Path 1216" d="M1953.234,1803.932a3.267,3.267,0,0,1,.175.55,21.174,21.174,0,0,1-1.768,10.653,26.931,26.931,0,0,1-4.043,6.743,27.572,27.572,0,0,1-5.418,5.038,21.8,21.8,0,0,1-9.434,3.75,16.909,16.909,0,0,1-2.4.037c-.094,0-.187-.056-.321-.221.182-.079.36-.172.548-.235,1.616-.542,3.283-.966,4.841-1.642a26.308,26.308,0,0,0,7.109-4.717,34.332,34.332,0,0,0,7.987-10.82,24.292,24.292,0,0,0,2.287-7.684c.049-.414.156-.821.244-1.229.009-.042.064-.075.2-.223" transform="translate(-1892.115 -1768.502)" fill="#c97eab"/>
    <path id="Path_1217" data-name="Path 1217" d="M1445.324,3705.627c1.726,0,3.453-.029,5.179.006a8.127,8.127,0,0,1,7.986,7.036,7.909,7.909,0,0,1-4.062,8.19,7.576,7.576,0,0,1-3.993,1.087c-3.313.015-6.626,0-9.939,0-.718,0-.735.018-.736.733,0,2.371.009,4.742-.006,7.114a1.486,1.486,0,0,1-2.311,1.327,1.429,1.429,0,0,1-.712-1.267c-.011-2.685-.038-5.371.008-8.055a3.024,3.024,0,0,1,3.014-2.885c3.365-.01,6.731.017,10.1-.02a7.571,7.571,0,0,0,2.3-.348,5.049,5.049,0,0,0,2.58-7.507,4.969,4.969,0,0,0-4.4-2.366c-3.33-.023-6.661,0-9.992-.016-.474,0-.591.2-.589.63.012,2.406.022,4.813-.012,7.219a1.982,1.982,0,0,1-.387,1.083,1.31,1.31,0,0,1-1.483.517,1.675,1.675,0,0,1-1.143-1.421c-.009-.121-.006-.244-.006-.366q0-3.688,0-7.375a3.139,3.139,0,0,1,3.319-3.315c.889,0,1.779,0,2.668,0h2.616Z" transform="translate(-1408.495 -3632.836)" fill="#26a8a6"/>
    <path id="Path_1218" data-name="Path 1218" d="M2686.218,3706.082h5.178a8.317,8.317,0,0,1,7.822,5.973,8.127,8.127,0,0,1-5.54,9.945,10.845,10.845,0,0,1-2.618.386c-3.208.045-6.416.017-9.624.018-.716,0-.735.019-.735.734q0,3.557,0,7.113a1.481,1.481,0,0,1-.835,1.4,1.418,1.418,0,0,1-1.535-.1,1.44,1.44,0,0,1-.66-1.244c-.009-2.667-.051-5.336.013-8a3.005,3.005,0,0,1,3.168-2.944c3.33,0,6.66,0,9.99,0a5.855,5.855,0,0,0,3.2-.8,5.011,5.011,0,0,0,1.625-7.064,5.089,5.089,0,0,0-4.458-2.372c-3.278-.016-6.556-.007-9.834,0-.61,0-.672.068-.673.71,0,2.318,0,4.637,0,6.956a1.608,1.608,0,0,1-.879,1.643,1.436,1.436,0,0,1-1.966-.7,2.512,2.512,0,0,1-.186-.962q-.022-3.713-.006-7.427a3.118,3.118,0,0,1,3.22-3.252c.889-.017,1.778,0,2.667,0h2.668Z" transform="translate(-2625.058 -3633.291)" fill="#26a8a6"/>
    <path id="Path_1219" data-name="Path 1219" d="M13.087,3698.73c-.711,1.532-1.353,2.92-2,4.306q-1.744,3.741-3.492,7.48c-.964,2.068-1.917,4.141-2.885,6.208-.613,1.308-1.228,2.616-1.874,3.909a1.45,1.45,0,0,1-1.964.663,1.488,1.488,0,0,1-.727-1.99c.953-2.034,1.936-4.054,2.892-6.086.779-1.655,1.534-3.321,2.3-4.979q2.212-4.763,4.433-9.521a13.992,13.992,0,0,1,1.082-2.138,2.742,2.742,0,0,1,4.781.485c1.293,2.684,2.627,5.349,3.939,8.024q.9,1.829,1.777,3.668a1.444,1.444,0,0,1-.261,1.741,1.314,1.314,0,0,1-1.53.365,1.721,1.721,0,0,1-.816-.675c-.816-1.557-1.577-3.143-2.353-4.721-1.081-2.2-2.159-4.4-3.306-6.737" transform="translate(0 -3622.813)" fill="#26a8a6"/>
    <path id="Path_1220" data-name="Path 1220" d="M4360.674,3720.125q0-5.673,0-11.346a1.409,1.409,0,0,1,.993-1.434,1.37,1.37,0,0,1,1.658.532,2.233,2.233,0,0,1,.284,1.129c.019,4.409.012,8.819.012,13.229v6.849c0,.953,0,.953.929.953q6.694,0,13.386,0a1.5,1.5,0,0,1,.575,2.927,2.777,2.777,0,0,1-.823.1q-7.608.01-15.216-.006a2.451,2.451,0,0,1-1.141-.27,1.383,1.383,0,0,1-.67-1.323c.018-3.782.009-7.564.01-11.346" transform="translate(-4275.02 -3634.443)" fill="#26a8a6"/>
    <path id="Path_1221" data-name="Path 1221" d="M3978.266,3720c0-3.625-.016-7.249.019-10.873a2.51,2.51,0,0,1,.433-1.446,1.456,1.456,0,0,1,2.556.543,3.1,3.1,0,0,1,.118.927q.01,10.873,0,21.746a3.081,3.081,0,0,1-.22,1.163,1.382,1.382,0,0,1-1.508.875,1.479,1.479,0,0,1-1.3-1.182,4.3,4.3,0,0,1-.093-.932q-.009-5.41,0-10.821" transform="translate(-3900.128 -3634.307)" fill="#26a8a6"/>
    <path id="Path_1222" data-name="Path 1222" d="M379.581,4536.957c1.725,0,3.449-.007,5.174,0a3.668,3.668,0,0,1,3.351,1.957c.971,1.71,1.884,3.454,2.807,5.191a1.593,1.593,0,0,1-.541,2.193,1.471,1.471,0,0,1-2.073-.715c-.864-1.53-1.7-3.076-2.5-4.644a1.516,1.516,0,0,0-1.544-.965c-3.188.034-6.376.027-9.564,0a3.26,3.26,0,0,1-1.4-.326,1.375,1.375,0,0,1-.625-1.582,1.455,1.455,0,0,1,1.422-1.1c1.829-.013,3.658,0,5.487,0Z" transform="translate(-365.299 -4447.847)" fill="#c97eab"/>
    <path id="Path_1223" data-name="Path 1223" d="M3206.97,4585.5c.323.2.884.49,1.391.859,2.207,1.607,4.393,3.244,6.6,4.855,1.052.768,1.2,1.758.333,2.52a1.429,1.429,0,0,1-1.832.032c-1.052-.74-2.079-1.517-3.117-2.276-1.446-1.059-2.9-2.106-4.332-3.181a2.319,2.319,0,0,1-.722-.8c-.451-.964.291-2,1.682-2.01" transform="translate(-3142.206 -4495.441)" fill="#c87fab"/>
  </g>
</svg>
